# xmcd
#
# Track frame offsets:
#	150
#	15394
#	32172
#	44013
#	64459
#	79009
#	91869
#	104051
#	116156
#	128706
#	141068
#	153726
#	175371
#	191916
#	208382
#	224833
#	237265
#	249619
#
# Disc length: 3579
#
# Revision: 1
# Processed by: cddbd v1.5.1PL0 Copyright (c) Steve Scherf et al.
# Submitted via: dBpowerAMP V4.0
# Normalized: r0:TDELIM( - )
#
DISCID=1b0df912
DTITLE=Various Artist - Number One Country Love Songs CD2
DYEAR=1900
DGENRE=Country
TTITLE0=Crystal Gayle and Gary Morris - Makin' Up For Lost Time
TTITLE1=Oak Ridge Boys - Fancy Free
TTITLE2=Donna Fargo - The Happiest Girl In The Whole U.S.A.
TTITLE3=Charlie Pride - You're So Good When You're Bad
TTITLE4=Forester Sisters - I Fell In Love Again Last Night
TTITLE5=Mel Tillis - Good Woman Blues
TTITLE6=Eddy Raven - I'm Gonna Get You
TTITLE7=John Schneider - I've Been Around Enough To Know
TTITLE8=Michael Martin Murphey - What's Forever For
TTITLE9=Johnny Lee - Bet Your Heart On Me
TTITLE10=T.G. Sheppard - I'll Be Coming Back For More
TTITLE11=Johnny Rodriguez - Just Get Up and Close The Door
TTITLE12=Holly Dunn - Are You Ever Gonna Love Me
TTITLE13=Eddie Rabbitt - You Can't Run From Love
TTITLE14=John Conlee - In My Eyes
TTITLE15=Don Williams - Some Broken Hearts Never Mend
TTITLE16=Crystal Gayle - Baby, What About You
TTITLE17=Juice Newton - The Sweetest Thing (I've Ever Know)
EXTD=
EXTT0=
EXTT1=
EXTT2=
EXTT3=
EXTT4=
EXTT5=
EXTT6=
EXTT7=
EXTT8=
EXTT9=
EXTT10=
EXTT11=
EXTT12=
EXTT13=
EXTT14=
EXTT15=
EXTT16=
EXTT17=
PLAYORDER=
